<?xml version="1.0" encoding="UTF-8" standalone="no"?>
<!DOCTYPE svg PUBLIC "-//W3C//DTD SVG 1.1//EN"
 "http://www.w3.org/Graphics/SVG/1.1/DTD/svg11.dtd">
<!-- Generated by graphviz version 2.43.0 (0)
 -->
<!-- Title: sourcetree Pages: 1 -->
<svg width="566pt" height="260pt"
 viewBox="0.00 0.00 565.50 260.00" xmlns="http://www.w3.org/2000/svg" xmlns:xlink="http://www.w3.org/1999/xlink">
<g id="graph0" class="graph" transform="scale(1 1) rotate(0) translate(4 256)">
<title>sourcetree</title>
<polygon fill="white" stroke="transparent" points="-4,4 -4,-256 561.5,-256 561.5,4 -4,4"/>
<!-- objc&#45;compat -->
<g id="node1" class="node">
<title>objc&#45;compat</title>
<polygon fill="yellow" stroke="black" points="404,-252 301,-252 301,-216 404,-216 404,-252"/>
<text text-anchor="middle" x="352.5" y="-230.3" font-family="Times,serif" font-size="14.00">objc&#45;compat</text>
</g>
<!-- MulleObjC -->
<g id="node4" class="node">
<title>MulleObjC</title>
<polygon fill="lightgrey" stroke="black" points="329.5,-180 237.5,-180 237.5,-144 329.5,-144 329.5,-180"/>
<text text-anchor="middle" x="283.5" y="-158.3" font-family="Times,serif" font-size="14.00">MulleObjC</text>
</g>
<!-- objc&#45;compat&#45;&gt;MulleObjC -->
<g id="edge7" class="edge">
<title>objc&#45;compat&#45;&gt;MulleObjC</title>
<path fill="none" stroke="black" d="M335.44,-215.7C327,-207.14 316.68,-196.66 307.46,-187.3"/>
<polygon fill="black" stroke="black" points="309.87,-184.77 300.36,-180.1 304.89,-189.68 309.87,-184.77"/>
</g>
<!-- mulle&#45;objc&#45;compat -->
<g id="node9" class="node">
<title>mulle&#45;objc&#45;compat</title>
<polygon fill="lightgrey" stroke="black" points="495,-180 348,-180 348,-144 495,-144 495,-180"/>
<text text-anchor="middle" x="421.5" y="-158.3" font-family="Times,serif" font-size="14.00">mulle&#45;objc&#45;compat</text>
</g>
<!-- objc&#45;compat&#45;&gt;mulle&#45;objc&#45;compat -->
<g id="edge8" class="edge">
<title>objc&#45;compat&#45;&gt;mulle&#45;objc&#45;compat</title>
<path fill="none" stroke="black" d="M369.56,-215.7C378,-207.14 388.32,-196.66 397.54,-187.3"/>
<polygon fill="black" stroke="black" points="400.11,-189.68 404.64,-180.1 395.13,-184.77 400.11,-189.68"/>
</g>
<!-- mulle&#45;objc&#45;debug -->
<g id="node2" class="node">
<title>mulle&#45;objc&#45;debug</title>
<polygon fill="lightgrey" stroke="black" points="139,-108 0,-108 0,-72 139,-72 139,-108"/>
<text text-anchor="middle" x="69.5" y="-86.3" font-family="Times,serif" font-size="14.00">mulle&#45;objc&#45;debug</text>
</g>
<!-- mulle&#45;fprintf -->
<g id="node3" class="node">
<title>mulle&#45;fprintf</title>
<polygon fill="lightgrey" stroke="black" points="123,-36 16,-36 16,0 123,0 123,-36"/>
<text text-anchor="middle" x="69.5" y="-14.3" font-family="Times,serif" font-size="14.00">mulle&#45;fprintf</text>
</g>
<!-- mulle&#45;objc&#45;debug&#45;&gt;mulle&#45;fprintf -->
<g id="edge1" class="edge">
<title>mulle&#45;objc&#45;debug&#45;&gt;mulle&#45;fprintf</title>
<path fill="none" stroke="black" d="M69.5,-71.7C69.5,-63.98 69.5,-54.71 69.5,-46.11"/>
<polygon fill="black" stroke="black" points="73,-46.1 69.5,-36.1 66,-46.1 73,-46.1"/>
</g>
<!-- MulleObjC&#45;&gt;mulle&#45;objc&#45;debug -->
<g id="edge4" class="edge">
<title>MulleObjC&#45;&gt;mulle&#45;objc&#45;debug</title>
<path fill="none" stroke="black" d="M237.33,-145.9C206.35,-135.76 165.19,-122.3 131.38,-111.24"/>
<polygon fill="black" stroke="black" points="132.19,-107.83 121.6,-108.04 130.02,-114.48 132.19,-107.83"/>
</g>
<!-- mulle&#45;container -->
<g id="node5" class="node">
<title>mulle&#45;container</title>
<polygon fill="lightgrey" stroke="black" points="285.5,-108 157.5,-108 157.5,-72 285.5,-72 285.5,-108"/>
<text text-anchor="middle" x="221.5" y="-86.3" font-family="Times,serif" font-size="14.00">mulle&#45;container</text>
</g>
<!-- MulleObjC&#45;&gt;mulle&#45;container -->
<g id="edge2" class="edge">
<title>MulleObjC&#45;&gt;mulle&#45;container</title>
<path fill="none" stroke="black" d="M268.17,-143.7C260.74,-135.3 251.68,-125.07 243.52,-115.86"/>
<polygon fill="black" stroke="black" points="245.9,-113.27 236.65,-108.1 240.66,-117.91 245.9,-113.27"/>
</g>
<!-- mulle&#45;fifo -->
<g id="node6" class="node">
<title>mulle&#45;fifo</title>
<polygon fill="lightgrey" stroke="black" points="387,-108 304,-108 304,-72 387,-72 387,-108"/>
<text text-anchor="middle" x="345.5" y="-86.3" font-family="Times,serif" font-size="14.00">mulle&#45;fifo</text>
</g>
<!-- MulleObjC&#45;&gt;mulle&#45;fifo -->
<g id="edge3" class="edge">
<title>MulleObjC&#45;&gt;mulle&#45;fifo</title>
<path fill="none" stroke="black" d="M298.83,-143.7C306.26,-135.3 315.32,-125.07 323.48,-115.86"/>
<polygon fill="black" stroke="black" points="326.34,-117.91 330.35,-108.1 321.1,-113.27 326.34,-117.91"/>
</g>
<!-- mulle&#45;objc&#45;runtime -->
<g id="node7" class="node">
<title>mulle&#45;objc&#45;runtime</title>
<polygon fill="lightgrey" stroke="black" points="557.5,-108 405.5,-108 405.5,-72 557.5,-72 557.5,-108"/>
<text text-anchor="middle" x="481.5" y="-86.3" font-family="Times,serif" font-size="14.00">mulle&#45;objc&#45;runtime</text>
</g>
<!-- MulleObjC&#45;&gt;mulle&#45;objc&#45;runtime -->
<g id="edge5" class="edge">
<title>MulleObjC&#45;&gt;mulle&#45;objc&#45;runtime</title>
<path fill="none" stroke="black" d="M329.67,-144.68C357.72,-134.76 393.77,-122.02 423.7,-111.44"/>
<polygon fill="black" stroke="black" points="424.92,-114.72 433.18,-108.08 422.59,-108.12 424.92,-114.72"/>
</g>
<!-- mulle&#45;concurrent -->
<g id="node8" class="node">
<title>mulle&#45;concurrent</title>
<polygon fill="lightgrey" stroke="black" points="551,-36 412,-36 412,0 551,0 551,-36"/>
<text text-anchor="middle" x="481.5" y="-14.3" font-family="Times,serif" font-size="14.00">mulle&#45;concurrent</text>
</g>
<!-- mulle&#45;objc&#45;runtime&#45;&gt;mulle&#45;concurrent -->
<g id="edge6" class="edge">
<title>mulle&#45;objc&#45;runtime&#45;&gt;mulle&#45;concurrent</title>
<path fill="none" stroke="black" d="M481.5,-71.7C481.5,-63.98 481.5,-54.71 481.5,-46.11"/>
<polygon fill="black" stroke="black" points="485,-46.1 481.5,-36.1 478,-46.1 485,-46.1"/>
</g>
</g>
</svg>
