<?xml version="1.0" encoding="UTF-8" standalone="no"?>
<!DOCTYPE svg PUBLIC "-//W3C//DTD SVG 1.1//EN"
 "http://www.w3.org/Graphics/SVG/1.1/DTD/svg11.dtd">
<!-- Generated by graphviz version 2.43.0 (0)
 -->
<!-- Title: sourcetree Pages: 1 -->
<svg width="266pt" height="116pt"
 viewBox="0.00 0.00 265.50 116.00" xmlns="http://www.w3.org/2000/svg" xmlns:xlink="http://www.w3.org/1999/xlink">
<g id="graph0" class="graph" transform="scale(1 1) rotate(0) translate(4 112)">
<title>sourcetree</title>
<polygon fill="white" stroke="transparent" points="-4,4 -4,-112 261.5,-112 261.5,4 -4,4"/>
<!-- objc&#45;compat -->
<g id="node1" class="node">
<title>objc&#45;compat</title>
<polygon fill="yellow" stroke="black" points="166.5,-108 63.5,-108 63.5,-72 166.5,-72 166.5,-108"/>
<text text-anchor="middle" x="115" y="-86.3" font-family="Times,serif" font-size="14.00">objc&#45;compat</text>
</g>
<!-- MulleObjC -->
<g id="node2" class="node">
<title>MulleObjC</title>
<polygon fill="lightgrey" stroke="black" points="92,-36 0,-36 0,0 92,0 92,-36"/>
<text text-anchor="middle" x="46" y="-14.3" font-family="Times,serif" font-size="14.00">MulleObjC</text>
</g>
<!-- objc&#45;compat&#45;&gt;MulleObjC -->
<g id="edge1" class="edge">
<title>objc&#45;compat&#45;&gt;MulleObjC</title>
<path fill="none" stroke="black" d="M97.94,-71.7C89.5,-63.14 79.18,-52.66 69.96,-43.3"/>
<polygon fill="black" stroke="black" points="72.37,-40.77 62.86,-36.1 67.39,-45.68 72.37,-40.77"/>
</g>
<!-- mulle&#45;objc&#45;compat -->
<g id="node3" class="node">
<title>mulle&#45;objc&#45;compat</title>
<polygon fill="lightgrey" stroke="black" points="257.5,-36 110.5,-36 110.5,0 257.5,0 257.5,-36"/>
<text text-anchor="middle" x="184" y="-14.3" font-family="Times,serif" font-size="14.00">mulle&#45;objc&#45;compat</text>
</g>
<!-- objc&#45;compat&#45;&gt;mulle&#45;objc&#45;compat -->
<g id="edge2" class="edge">
<title>objc&#45;compat&#45;&gt;mulle&#45;objc&#45;compat</title>
<path fill="none" stroke="black" d="M132.06,-71.7C140.5,-63.14 150.82,-52.66 160.04,-43.3"/>
<polygon fill="black" stroke="black" points="162.61,-45.68 167.14,-36.1 157.63,-40.77 162.61,-45.68"/>
</g>
</g>
</svg>
